<svg xmlns="http://www.w3.org/2000/svg" viewBox="0 0 259.73 110.82"><defs><style>.cls-1{fill:none;}.cls-2{fill:#fefcfc;}</style></defs><g id="Layer_2" data-name="Layer 2"><g id="Layer_2-2" data-name="Layer 2"><polygon class="cls-1" points="52.65 28.54 48.21 24.97 41.23 28.48 39.87 36.1 44.6 41.06 44.46 39.92 51.95 34.24 52.65 28.54"/><path class="cls-1" d="M6.94,33.17l.72.76,1.21,0L17,27l17-5.44L20.83,32.13,15.46,43.31,15.83,45l.86.59.74-.16,6.23-10.55,5.09-4.42,4-.25-.25,8.36,6.77,7.14c.41.43.77.84,1.1,1.23l.46.57.07.09.2,0a5.65,5.65,0,0,1,.47-.8l1.69-2.28h0l-1.56-1.56C40.8,42,39.91,41.06,39,40.11l-2.75-2.93L38.2,26.23l10.42-5.3L56.29,27l-1.06,9.07-7,5.38.61,4.75L59,41l6.09-8.92,0-2.88L61.86,21l0-1.44V17.15l0-2.74,4-10.87,0,0H62l-16.67,0L37.79,11h-4L14,10.92l-1.76,1.76v.93l1.68,1.54h.72l4.31,0h9.57l2.42,2.42-3,3L17,23.17,6.62,31.26Z"/><path class="cls-1" d="M109.3,60.86h-4.9V71.14h6.36c3.37,0,6.74-1.16,6.74-5.2C117.5,61.47,113,60.86,109.3,60.86Z"/><path class="cls-1" d="M43.1,55.56A25.4,25.4,0,1,0,68.49,81,25.42,25.42,0,0,0,43.1,55.56Zm0,2.33a6,6,0,1,1-6,6A6,6,0,0,1,43.1,57.89Zm-20.9,18a6,6,0,1,1,6,6A6,6,0,0,1,22.2,75.89Zm11.11,24.64a6,6,0,1,1,6-6A6,6,0,0,1,33.31,100.53ZM43.1,84.11A3.16,3.16,0,1,1,46.26,81,3.15,3.15,0,0,1,43.1,84.11Zm10,16.42a6,6,0,1,1,6-6A6,6,0,0,1,53.1,100.53Zm12-24.64a6,6,0,1,1-6-6A6,6,0,0,1,65.1,75.89Z"/><path class="cls-1" d="M163.67,42.86c4.59,0,7.34-3.06,7.34-7.53s-2.75-7.54-7.34-7.54-7.35,3.07-7.35,7.54S159.07,42.86,163.67,42.86Z"/><path class="cls-1" d="M244.92,26.33a6.13,6.13,0,0,0-6.5,5.63h12.13A5.5,5.5,0,0,0,244.92,26.33Z"/><circle class="cls-2" cx="43.1" cy="63.89" r="6"/><circle class="cls-2" cx="59.1" cy="75.89" r="6"/><circle class="cls-2" cx="28.2" cy="75.89" r="6"/><circle class="cls-2" cx="33.31" cy="94.53" r="6"/><circle class="cls-2" cx="53.1" cy="94.53" r="6"/><path class="cls-2" d="M43.1,77.8A3.16,3.16,0,1,0,46.26,81,3.15,3.15,0,0,0,43.1,77.8Z"/><path class="cls-2" d="M43.1,51.56a29.39,29.39,0,0,0-14.5,55L0,106.82l0,4,43.08-.47h0a29.4,29.4,0,0,0,0-58.79Zm0,54.79A25.4,25.4,0,1,1,68.49,81,25.42,25.42,0,0,1,43.1,106.35Z"/><path class="cls-2" d="M2.8,29.75l.8,5.06,2.47,2.63,4.06.15,7-6L11.68,42.88l1,4.24,3.3,2.25,3.79-.79L25,39.63l1.46-2.46,2.72-2.42,0,5.08,5.71,6c.75.77,1.48,1.52,2.2,2.21.36.35.72.69,1.08,1l1.45,1.28,1.4-.16A4.12,4.12,0,0,0,41.6,50c.6.23,1.28-.12,2-1l1.69-2,.16,1.27,2.68,2.28,13.25-6.84,7.17-10.6,0-4.64-3.26-8.1.1-5.35L69.72,3.13,67.76,0H58L43.86.06,36.37,7.57,12.59,7.48,8.8,11.25V15.1l3.69,3.66,8.07-.07-5.1,1.25ZM44.46,39.92l.14,1.14-4.73-5,1.36-7.62,7-3.51,4.44,3.57-.7,5.7ZM27.92,20.56l3-3-2.42-2.42H19l-4.31,0h-.72l-1.68-1.54v-.93L14,10.92,33.83,11h4l7.5-7.49L62,3.49h3.86l0,0-4,10.87,0,2.74v2.44l0,1.44,3.21,8.15,0,2.88L59,41,48.81,46.24l-.61-4.75,7-5.38L56.29,27l-7.67-6.11L38.2,26.23l-1.93,11L39,40.11c.89,1,1.78,1.88,2.72,2.83L43.3,44.5h0L41.6,46.79a5.65,5.65,0,0,0-.47.8l-.2,0-.07-.09-.46-.57c-.33-.39-.69-.8-1.1-1.23l-6.77-7.14.25-8.36-4,.25-5.09,4.42L17.43,45.38l-.74.16L15.83,45l-.37-1.64,5.37-11.18L34.05,21.58,17,27,8.87,34l-1.21,0-.72-.76-.32-1.91L17,23.17Z"/><polygon class="cls-2" points="104.4 16.96 104.52 16.96 115.48 50.21 122.77 50.21 134.16 16.96 134.28 16.96 134.28 50.21 143.83 50.21 143.83 6.85 129.44 6.85 119.4 35.14 119.28 35.14 109.3 6.85 94.84 6.85 94.84 50.21 104.4 50.21 104.4 16.96"/><path class="cls-2" d="M163.67,50.94c9.18,0,16.53-6.12,16.53-15.61s-7.35-15.62-16.53-15.62-16.54,6.13-16.54,15.62S154.48,50.94,163.67,50.94Zm0-23.15c4.59,0,7.34,3.07,7.34,7.54s-2.75,7.53-7.34,7.53-7.35-3.06-7.35-7.53S159.07,27.79,163.67,27.79Z"/><polygon class="cls-2" points="201.51 50.21 213.26 20.45 204.01 20.45 197.03 40.65 196.91 40.65 189.38 20.45 179.46 20.45 191.77 50.21 201.51 50.21"/><path class="cls-2" d="M221.16,16.41a5.33,5.33,0,1,0-5.33-5.33A5.33,5.33,0,0,0,221.16,16.41Z"/><rect class="cls-2" x="216.57" y="20.45" width="9.18" height="29.76"/><path class="cls-2" d="M259.73,35.33c0-9.49-5.38-15.62-14-15.62-9.18,0-16.53,6.13-16.53,15.62s7.35,15.61,16.53,15.61a16.16,16.16,0,0,0,12.56-5.88l-6.43-4.71A7.87,7.87,0,0,1,245.34,44a6.87,6.87,0,0,1-6.92-5.76h21.31ZM238.42,32a6.13,6.13,0,0,1,6.5-5.63A5.5,5.5,0,0,1,250.55,32Z"/><path class="cls-2" d="M111,52.77H94.84V96.13h9.56V79.23h7c9.12,0,16-3.13,16-13.29S120,52.77,111,52.77Zm-.19,18.37H104.4V60.86h4.9c3.67,0,8.2.61,8.2,5.08C117.5,70,114.13,71.14,110.76,71.14Z"/><rect class="cls-2" x="130.85" y="66.37" width="9.18" height="29.76"/><path class="cls-2" d="M135.44,51.67A5.33,5.33,0,1,0,140.77,57,5.33,5.33,0,0,0,135.44,51.67Z"/><path class="cls-2" d="M159.93,73.72A5.68,5.68,0,0,1,164.46,76l6.06-6.37c-2.87-2.94-7.1-4-10.59-4-9.18,0-16.53,6.13-16.53,15.62s7.35,15.61,16.53,15.61c3.49,0,7.72-1,10.59-4l-6.06-6.37a5.84,5.84,0,0,1-4.53,2.27c-4.59,0-7.35-3.06-7.35-7.53S155.34,73.72,159.93,73.72Z"/><polygon class="cls-2" points="204.57 66.37 193.3 66.37 183.14 78.13 183.14 49.84 173.95 49.84 173.95 96.13 183.14 96.13 183.14 81.06 183.26 81.06 193.3 96.13 204.87 96.13 192.75 79.78 204.57 66.37"/><path class="cls-2" d="M217.3,71.14h-.12V66.37H208V96.13h9.19V83.7c0-5.94.86-10,7.84-10a14.12,14.12,0,0,1,3.92.61V65.94a11.88,11.88,0,0,0-3.07-.31C221.83,65.63,219.26,67.53,217.3,71.14Z"/></g></g></svg>